<svg width="336" height="337" viewBox="0 0 336 337" fill="none" xmlns="http://www.w3.org/2000/svg">
<g opacity="0.24" filter="url(#filter0_f_550_7299)">
<circle cx="167.631" cy="168.508" r="127.631" fill="#081939"/>
<circle cx="167.631" cy="168.508" r="127.631" fill="url(#paint0_radial_550_7299)" fill-opacity="0.9"/>
<circle cx="167.631" cy="168.508" r="127.631" fill="url(#paint1_radial_550_7299)" fill-opacity="0.85"/>
<circle cx="167.631" cy="168.508" r="127.631" fill="url(#paint2_radial_550_7299)" fill-opacity="0.8"/>
<circle cx="167.631" cy="168.508" r="127.631" fill="url(#paint3_radial_550_7299)" fill-opacity="0.88"/>
</g>
<g filter="url(#filter1_d_550_7299)">
<path d="M276.708 147.199C276.708 207.508 227.819 256.398 167.51 256.398C107.201 256.398 58.3118 207.508 58.3118 147.199C58.3118 86.8909 107.201 38.0012 167.51 38.0012C227.819 38.0012 276.708 86.8909 276.708 147.199Z" fill="#081939"/>
<path d="M276.708 147.199C276.708 207.508 227.819 256.398 167.51 256.398C107.201 256.398 58.3118 207.508 58.3118 147.199C58.3118 86.8909 107.201 38.0012 167.51 38.0012C227.819 38.0012 276.708 86.8909 276.708 147.199Z" fill="url(#paint4_radial_550_7299)" fill-opacity="0.9"/>
<path d="M276.708 147.199C276.708 207.508 227.819 256.398 167.51 256.398C107.201 256.398 58.3118 207.508 58.3118 147.199C58.3118 86.8909 107.201 38.0012 167.51 38.0012C227.819 38.0012 276.708 86.8909 276.708 147.199Z" fill="url(#paint5_radial_550_7299)" fill-opacity="0.85"/>
<path d="M276.708 147.199C276.708 207.508 227.819 256.398 167.51 256.398C107.201 256.398 58.3118 207.508 58.3118 147.199C58.3118 86.8909 107.201 38.0012 167.51 38.0012C227.819 38.0012 276.708 86.8909 276.708 147.199Z" fill="url(#paint6_radial_550_7299)" fill-opacity="0.8"/>
<path d="M276.708 147.199C276.708 207.508 227.819 256.398 167.51 256.398C107.201 256.398 58.3118 207.508 58.3118 147.199C58.3118 86.8909 107.201 38.0012 167.51 38.0012C227.819 38.0012 276.708 86.8909 276.708 147.199Z" fill="url(#paint7_radial_550_7299)" fill-opacity="0.88"/>
</g>
<path d="M128.372 87.2102C119.973 60.7185 158.743 60.0806 172.309 91.0882C179.169 106.767 177.853 129.057 176.379 151.399C155.296 126.626 132.775 101.1 128.372 87.2102Z" fill="url(#paint8_linear_550_7299)"/>
<path d="M182.425 222.901C251.593 210.695 280.757 150.867 254.584 112.795C242.377 95.0383 223.26 98.3348 182.425 100.78C141.59 103.226 101.006 110.084 101.005 163.456C101.004 216.828 150.644 228.51 182.425 222.901Z" fill="url(#paint9_radial_550_7299)"/>
<path d="M182.425 222.901C251.593 210.695 280.757 150.867 254.584 112.795C242.377 95.0383 223.26 98.3348 182.425 100.78C141.59 103.226 101.006 110.084 101.005 163.456C101.004 216.828 150.644 228.51 182.425 222.901Z" fill="url(#paint10_linear_550_7299)"/>
<g style="mix-blend-mode:hard-light">
<path d="M121.034 160.225C121.033 124.526 132.066 91.2262 137.618 75.4609C139.902 68.9741 148.45 67.1272 154.149 70.9765C163.853 76.828 183.404 91.0435 203.138 104.672C223.645 118.833 253.217 134.49 239.645 180.917C229.362 216.093 179.188 214.501 179.188 214.501C179.188 214.501 121.036 213.534 121.034 160.225Z" fill="url(#paint11_linear_550_7299)"/>
</g>
<path d="M233.253 212.873C261.682 187.997 271.553 135.998 252.491 103.692C233.43 71.3861 206.273 63.8631 183.677 64.9223C161.082 65.9815 115.186 80.1099 113.248 130.829C111.309 181.548 137.687 203.061 165.277 227.3C175.938 236.666 204.823 237.748 233.253 212.873Z" fill="url(#paint12_linear_550_7299)"/>
<path d="M134.48 197.471C136.105 198.432 137.557 199.367 138.642 200.339C152.794 213.012 174.488 211.667 197.462 205.659C221.694 199.322 260.998 187.902 267.379 157.66C270.995 140.527 257.876 117.513 240.279 98.8405C224.251 81.831 204.695 68.4235 186.981 66.345C182.542 65.8242 177.126 65.775 171.314 66.5314C137.663 73.4738 119.498 92.2881 116.724 130.576C113.949 168.864 117.081 176.255 134.48 197.471Z" fill="url(#paint13_linear_550_7299)" fill-opacity="0.78"/>
<g style="mix-blend-mode:color-dodge">
<path d="M93.1405 157.105C87.8689 120.482 103.4 80.9995 138.921 80.9995C166.963 80.9995 182.809 102.438 204.353 116.52C230.809 133.813 251.09 145.74 251.09 163.257C251.09 195.038 203.707 211.917 158.511 193.825C125.535 180.624 98.412 193.729 93.1405 157.105Z" fill="url(#paint14_radial_550_7299)" fill-opacity="0.8"/>
</g>
<path d="M93.1405 157.105C87.8689 120.482 103.4 80.9995 138.921 80.9995C166.963 80.9995 182.809 102.438 204.353 116.52C230.809 133.813 251.09 145.74 251.09 163.257C251.09 195.038 203.707 211.917 158.511 193.825C125.535 180.624 98.412 193.729 93.1405 157.105Z" fill="url(#paint15_linear_550_7299)"/>
<path d="M179.095 210.947C190.726 242.932 220.127 232.911 215.601 207.715C213.448 195.729 195.506 173.873 176.379 151.397C174.938 173.241 173.345 195.135 179.095 210.947Z" fill="url(#paint16_radial_550_7299)"/>
<path d="M179.095 210.947C190.726 242.932 220.127 232.911 215.601 207.715C213.448 195.729 195.506 173.873 176.379 151.397C174.938 173.241 173.345 195.135 179.095 210.947Z" fill="url(#paint17_linear_550_7299)"/>
<g filter="url(#filter2_df_550_7299)">
<path d="M195.004 145.132C195.004 160.317 182.694 172.628 167.508 172.628C152.323 172.628 140.012 160.317 140.012 145.132C140.012 139.293 141.832 133.879 144.936 129.427C148.075 124.923 150.206 124.338 146.618 120.183C141.957 114.785 137.859 108.091 160.702 104.483C182.009 101.116 192.726 99.8537 186.981 119.516C185.669 124.005 187.119 125.301 189.849 129.099C193.093 133.612 195.004 139.149 195.004 145.132Z" fill="white"/>
</g>
<defs>
<filter id="filter0_f_550_7299" x="0.0565987" y="0.934162" width="335.148" height="335.148" filterUnits="userSpaceOnUse" color-interpolation-filters="sRGB">
<feFlood flood-opacity="0" result="BackgroundImageFix"/>
<feBlend mode="normal" in="SourceGraphic" in2="BackgroundImageFix" result="shape"/>
<feGaussianBlur stdDeviation="19.9717" result="effect1_foregroundBlur_550_7299"/>
</filter>
<filter id="filter1_d_550_7299" x="33.9019" y="22.0239" width="267.216" height="267.216" filterUnits="userSpaceOnUse" color-interpolation-filters="sRGB">
<feFlood flood-opacity="0" result="BackgroundImageFix"/>
<feColorMatrix in="SourceAlpha" type="matrix" values="0 0 0 0 0 0 0 0 0 0 0 0 0 0 0 0 0 0 127 0" result="hardAlpha"/>
<feOffset dy="8.4325"/>
<feGaussianBlur stdDeviation="12.2049"/>
<feColorMatrix type="matrix" values="0 0 0 0 0.121569 0 0 0 0 0.145098 0 0 0 0 0.258824 0 0 0 0.45 0"/>
<feBlend mode="normal" in2="BackgroundImageFix" result="effect1_dropShadow_550_7299"/>
<feBlend mode="normal" in="SourceGraphic" in2="effect1_dropShadow_550_7299" result="shape"/>
</filter>
<filter id="filter2_df_550_7299" x="113.383" y="75.8839" width="117.126" height="132.249" filterUnits="userSpaceOnUse" color-interpolation-filters="sRGB">
<feFlood flood-opacity="0" result="BackgroundImageFix"/>
<feColorMatrix in="SourceAlpha" type="matrix" values="0 0 0 0 0 0 0 0 0 0 0 0 0 0 0 0 0 0 127 0" result="hardAlpha"/>
<feOffset dx="4.43816" dy="4.43816"/>
<feGaussianBlur stdDeviation="15.5335"/>
<feColorMatrix type="matrix" values="0 0 0 0 1 0 0 0 0 1 0 0 0 0 1 0 0 0 1 0"/>
<feBlend mode="normal" in2="BackgroundImageFix" result="effect1_dropShadow_550_7299"/>
<feBlend mode="normal" in="SourceGraphic" in2="effect1_dropShadow_550_7299" result="shape"/>
<feGaussianBlur stdDeviation="5.54769" result="effect2_foregroundBlur_550_7299"/>
</filter>
<radialGradient id="paint0_radial_550_7299" cx="0" cy="0" r="1" gradientUnits="userSpaceOnUse" gradientTransform="translate(126.094 82.7923) rotate(63.1327) scale(96.0882 113.986)">
<stop stop-color="#7D7194"/>
<stop offset="1" stop-color="#7D7194" stop-opacity="0"/>
</radialGradient>
<radialGradient id="paint1_radial_550_7299" cx="0" cy="0" r="1" gradientUnits="userSpaceOnUse" gradientTransform="translate(288.465 127.35) rotate(161.19) scale(127.652)">
<stop stop-color="#4A8F9F"/>
<stop offset="1" stop-color="#4A8F9F" stop-opacity="0"/>
</radialGradient>
<radialGradient id="paint2_radial_550_7299" cx="0" cy="0" r="1" gradientUnits="userSpaceOnUse" gradientTransform="translate(209.923 289.343) rotate(-108.939) scale(81.4406)">
<stop stop-color="#5C4763"/>
<stop offset="1" stop-color="#5C4763" stop-opacity="0"/>
</radialGradient>
<radialGradient id="paint3_radial_550_7299" cx="0" cy="0" r="1" gradientUnits="userSpaceOnUse" gradientTransform="translate(28.6719 214.577) rotate(-18.3418) scale(146.396 203.495)">
<stop stop-color="#3D3041"/>
<stop offset="1" stop-color="#3D3041" stop-opacity="0"/>
</radialGradient>
<radialGradient id="paint4_radial_550_7299" cx="0" cy="0" r="1" gradientUnits="userSpaceOnUse" gradientTransform="translate(131.972 73.8626) rotate(63.1327) scale(82.2111 97.5243)">
<stop stop-color="#7D7194"/>
<stop offset="1" stop-color="#7D7194" stop-opacity="0"/>
</radialGradient>
<radialGradient id="paint5_radial_550_7299" cx="0" cy="0" r="1" gradientUnits="userSpaceOnUse" gradientTransform="translate(270.894 111.985) rotate(161.19) scale(109.216)">
<stop stop-color="#4A8F9F"/>
<stop offset="1" stop-color="#4A8F9F" stop-opacity="0"/>
</radialGradient>
<radialGradient id="paint6_radial_550_7299" cx="0" cy="0" r="1" gradientUnits="userSpaceOnUse" gradientTransform="translate(203.695 250.583) rotate(-108.939) scale(69.6789)">
<stop stop-color="#5C4763"/>
<stop offset="1" stop-color="#5C4763" stop-opacity="0"/>
</radialGradient>
<radialGradient id="paint7_radial_550_7299" cx="0" cy="0" r="1" gradientUnits="userSpaceOnUse" gradientTransform="translate(48.6197 186.615) rotate(-18.3418) scale(125.254 174.106)">
<stop stop-color="#3D3041"/>
<stop offset="1" stop-color="#3D3041" stop-opacity="0"/>
</radialGradient>
<linearGradient id="paint8_linear_550_7299" x1="127.193" y1="85.9187" x2="174.019" y2="78.165" gradientUnits="userSpaceOnUse">
<stop stop-color="#E375A0"/>
<stop offset="1" stop-color="#E375A0" stop-opacity="0"/>
</linearGradient>
<radialGradient id="paint9_radial_550_7299" cx="0" cy="0" r="1" gradientUnits="userSpaceOnUse" gradientTransform="translate(140.419 117.58) rotate(69.3339) scale(78.7263 94.8255)">
<stop stop-color="#B850C1"/>
<stop offset="1" stop-color="#DCADE0" stop-opacity="0"/>
</radialGradient>
<linearGradient id="paint10_linear_550_7299" x1="187.75" y1="98.71" x2="187.018" y2="123.213" gradientUnits="userSpaceOnUse">
<stop stop-color="#B850C1"/>
<stop offset="1" stop-color="#DCADE0" stop-opacity="0"/>
</linearGradient>
<linearGradient id="paint11_linear_550_7299" x1="133.311" y1="177.025" x2="194.049" y2="153.764" gradientUnits="userSpaceOnUse">
<stop stop-color="#7EA1E4"/>
<stop offset="1" stop-color="#70CBFF" stop-opacity="0"/>
</linearGradient>
<linearGradient id="paint12_linear_550_7299" x1="262.01" y1="140.841" x2="187.751" y2="174.307" gradientUnits="userSpaceOnUse">
<stop stop-color="#5BAEEC"/>
<stop offset="1" stop-color="#5BAEEC" stop-opacity="0"/>
</linearGradient>
<linearGradient id="paint13_linear_550_7299" x1="139.475" y1="132.967" x2="237.97" y2="151.279" gradientUnits="userSpaceOnUse">
<stop stop-color="#85FAFE" stop-opacity="0"/>
<stop offset="1" stop-color="#85FAFE"/>
</linearGradient>
<radialGradient id="paint14_radial_550_7299" cx="0" cy="0" r="1" gradientUnits="userSpaceOnUse" gradientTransform="translate(134.355 99.8075) rotate(84.3771) scale(72.0719 80.4958)">
<stop stop-color="#65ECE8"/>
<stop offset="1" stop-color="#8BECE9" stop-opacity="0"/>
</radialGradient>
<linearGradient id="paint15_linear_550_7299" x1="221.396" y1="181.728" x2="242.607" y2="141.134" gradientUnits="userSpaceOnUse">
<stop stop-color="#7BE7F6" stop-opacity="0"/>
<stop offset="0.75" stop-color="#7BE7F6"/>
</linearGradient>
<radialGradient id="paint16_radial_550_7299" cx="0" cy="0" r="1" gradientUnits="userSpaceOnUse" gradientTransform="translate(183.711 223.548) rotate(-68.2079) scale(45.2615 58.1105)">
<stop stop-color="#E375A0" stop-opacity="0"/>
<stop offset="1" stop-color="#FF91C6"/>
</radialGradient>
<linearGradient id="paint17_linear_550_7299" x1="179.188" y1="160.872" x2="182.419" y2="182.841" gradientUnits="userSpaceOnUse">
<stop stop-color="white"/>
<stop offset="1" stop-color="white" stop-opacity="0"/>
</linearGradient>
</defs>
</svg>
