<svg width="32" height="17" viewBox="0 0 32 17" fill="none" xmlns="http://www.w3.org/2000/svg">
<path d="M0 1.33799C0 0.599038 0.599038 0 1.33799 0H22.7458C23.4848 0 24.0838 0.599038 24.0838 1.33799C24.0838 2.07694 23.4848 2.67598 22.7458 2.67598H1.33799C0.599039 2.67598 0 2.07694 0 1.33799Z" fill="#CDD4F0"/>
<path d="M7.26337 8.02794C7.26337 7.28898 7.86241 6.68995 8.60136 6.68995H30.0092C30.7481 6.68995 31.3472 7.28898 31.3472 8.02794C31.3472 8.76689 30.7481 9.36592 30.0092 9.36592H8.60136C7.86241 9.36592 7.26337 8.76689 7.26337 8.02794Z" fill="#CDD4F0"/>
<path d="M0 14.7179C0 13.9789 0.599038 13.3799 1.33799 13.3799H22.7458C23.4848 13.3799 24.0838 13.9789 24.0838 14.7179C24.0838 15.4568 23.4848 16.0559 22.7458 16.0559H1.33799C0.599039 16.0559 0 15.4568 0 14.7179Z" fill="#CDD4F0"/>
</svg>
