<svg width="11" height="10" viewBox="0 0 11 10" fill="none" xmlns="http://www.w3.org/2000/svg">
<path d="M10.5641 3.99899L8.32538 6.14853L8.84763 9.15787C8.86067 9.22504 8.85385 9.29446 8.82796 9.35794C8.80207 9.42142 8.75821 9.47631 8.70155 9.51613C8.64668 9.55542 8.58172 9.57892 8.51397 9.58398C8.44623 9.58905 8.37839 9.57547 8.31808 9.54479L5.55344 8.11177L2.7888 9.54479C2.73075 9.57199 2.6664 9.58366 2.60227 9.57863C2.53814 9.5736 2.4765 9.55204 2.42359 9.51613C2.36693 9.47631 2.32307 9.42142 2.29718 9.35794C2.2713 9.29446 2.26447 9.22504 2.27751 9.15787L2.79611 6.13778L0.557372 3.98825C0.489352 3.92112 0.451172 3.83032 0.451172 3.73568C0.451172 3.64103 0.489352 3.55023 0.557372 3.48311C0.613298 3.42705 0.686429 3.39056 0.765542 3.37921L3.85522 2.93856L5.23206 0.201486C5.25309 0.159085 5.28245 0.121175 5.31846 0.08993C5.35446 0.0586852 5.3964 0.0347202 5.44187 0.0194096C5.48733 0.00409894 5.53543 -0.00225612 5.58341 0.000708944C5.63138 0.00367401 5.67829 0.0159008 5.72144 0.0366881C5.7946 0.0717181 5.85372 0.129721 5.88943 0.201486L7.26993 2.9493L10.3596 3.38996C10.4074 3.39612 10.4535 3.41151 10.4952 3.43524C10.5369 3.45896 10.5734 3.49056 10.6026 3.52819C10.6318 3.56583 10.6531 3.60876 10.6653 3.65452C10.6775 3.70028 10.6804 3.74795 10.6737 3.79479C10.6594 3.87228 10.6212 3.94358 10.5641 3.99899Z" fill="#75D9E9"/>
</svg>
