<svg width="104" height="34" viewBox="0 0 104 34" fill="none" xmlns="http://www.w3.org/2000/svg">
<path d="M103.75 29.4151V29.4578C103.727 31.8321 101.795 33.7504 99.4162 33.7504H4.86754C2.47395 33.7506 0.532715 31.8092 0.532715 29.4151V4.65807C0.532715 2.26445 2.47392 0.323242 4.86754 0.323242H99.416C101.809 0.323242 103.75 2.26439 103.75 4.65807V29.4151Z" stroke="white" stroke-width="0.5"/>
<path d="M23.5466 16.2143C23.5244 13.7498 25.5645 12.5509 25.6578 12.4951C24.5024 10.8105 22.7116 10.5804 22.0823 10.562C20.5782 10.4038 19.1193 11.462 18.3531 11.462C17.5717 11.462 16.3918 10.5773 15.1202 10.6033C13.4839 10.6286 11.9531 11.576 11.1135 13.0471C9.3808 16.0468 10.673 20.455 12.3331 22.8797C13.1635 24.0672 14.1338 25.3931 15.4039 25.3464C16.6464 25.2952 17.1106 24.5542 18.61 24.5542C20.0958 24.5542 20.5316 25.3464 21.8269 25.3166C23.1604 25.2952 24 24.1238 24.8014 22.9256C25.761 21.5645 26.1464 20.2241 26.1617 20.1553C26.1303 20.1446 23.5718 19.1681 23.5466 16.2143Z" fill="white"/>
<path d="M21.1003 8.96647C21.7686 8.13072 22.2258 6.99369 22.0989 5.83984C21.1316 5.88266 19.9219 6.50891 19.2254 7.32631C18.609 8.04661 18.0585 9.22722 18.2007 10.3375C19.2873 10.4185 20.4029 9.78923 21.1003 8.96647Z" fill="white"/>
<path d="M41.5307 25.1749H39.7942L38.843 22.1859H35.5367L34.6306 25.1749H32.9399L36.2157 14.999H38.2389L41.5307 25.1749ZM38.5563 20.9319L37.696 18.2748C37.605 18.0033 37.4345 17.3641 37.1829 16.3578H37.1524C37.0522 16.7906 36.8909 17.4298 36.6691 18.2748L35.8242 20.9319H38.5563Z" fill="white"/>
<path d="M49.9551 21.4167C49.9551 22.6646 49.6179 23.651 48.9435 24.3751C48.3394 25.0197 47.5893 25.3416 46.6939 25.3416C45.7274 25.3416 45.0331 24.9944 44.6103 24.3001H44.5797V28.1654H42.9494V20.2536C42.9494 19.4691 42.9288 18.664 42.889 17.8381H44.3227L44.4137 19.0012H44.4443C44.988 18.1249 45.813 17.6875 46.9202 17.6875C47.7858 17.6875 48.5084 18.0293 49.0865 18.7137C49.6661 19.3988 49.9551 20.2995 49.9551 21.4167ZM48.2943 21.4763C48.2943 20.7621 48.1337 20.1734 47.8111 19.71C47.4585 19.2267 46.9852 18.9851 46.3919 18.9851C45.9897 18.9851 45.6242 19.1197 45.2977 19.385C44.9704 19.6526 44.7563 20.0021 44.6561 20.4349C44.6057 20.6367 44.5804 20.8019 44.5804 20.9319V22.1553C44.5804 22.689 44.7441 23.1394 45.0713 23.5072C45.3986 23.875 45.8237 24.0585 46.3468 24.0585C46.9608 24.0585 47.4387 23.8215 47.7805 23.3489C48.123 22.8756 48.2943 22.2517 48.2943 21.4763Z" fill="white"/>
<path d="M58.3936 21.4167C58.3936 22.6646 58.0563 23.651 57.3812 24.3751C56.7779 25.0197 56.0277 25.3416 55.1323 25.3416C54.1658 25.3416 53.4715 24.9944 53.0495 24.3001H53.0189V28.1654H51.3887V20.2536C51.3887 19.4691 51.368 18.664 51.3282 17.8381H52.762L52.8529 19.0012H52.8835C53.4264 18.1249 54.2515 17.6875 55.3595 17.6875C56.2243 17.6875 56.9469 18.0293 57.5265 18.7137C58.1038 19.3988 58.3936 20.2995 58.3936 21.4167ZM56.7327 21.4763C56.7327 20.7621 56.5714 20.1734 56.2487 19.71C55.8962 19.2267 55.4244 18.9851 54.8303 18.9851C54.4273 18.9851 54.0626 19.1197 53.7353 19.385C53.4081 19.6526 53.1947 20.0021 53.0946 20.4349C53.0449 20.6367 53.0189 20.8019 53.0189 20.9319V22.1553C53.0189 22.689 53.1825 23.1394 53.5082 23.5072C53.8355 23.8742 54.2607 24.0585 54.7852 24.0585C55.3992 24.0585 55.8771 23.8215 56.2189 23.3489C56.5615 22.8756 56.7327 22.2517 56.7327 21.4763Z" fill="white"/>
<path d="M67.8301 22.3209C67.8301 23.1865 67.5296 23.8908 66.9263 24.4344C66.2634 25.0285 65.3404 25.3252 64.1545 25.3252C63.0595 25.3252 62.1817 25.1142 61.5172 24.6913L61.8949 23.3326C62.6107 23.7654 63.3959 23.9825 64.2516 23.9825C64.8656 23.9825 65.3435 23.8433 65.6868 23.5665C66.0286 23.2897 66.1991 22.9181 66.1991 22.4548C66.1991 22.0418 66.0584 21.6939 65.7763 21.4118C65.4957 21.1296 65.0269 20.8674 64.3724 20.625C62.5908 19.9605 61.7007 18.9871 61.7007 17.7071C61.7007 16.8706 62.0127 16.1847 62.6374 15.651C63.2598 15.1165 64.0902 14.8496 65.1286 14.8496C66.0546 14.8496 66.8238 15.0109 67.4379 15.3329L67.0303 16.6618C66.4568 16.3498 65.8084 16.1939 65.0827 16.1939C64.5093 16.1939 64.0612 16.3353 63.74 16.6167C63.4686 16.8683 63.3325 17.1749 63.3325 17.5381C63.3325 17.9403 63.4877 18.2729 63.7997 18.5344C64.0711 18.7761 64.5643 19.0376 65.28 19.3197C66.1555 19.6722 66.7986 20.0844 67.2123 20.5569C67.6244 21.0279 67.8301 21.6175 67.8301 22.3209Z" fill="white"/>
<path d="M73.2194 19.0605H71.4225V22.623C71.4225 23.5291 71.7391 23.9817 72.3737 23.9817C72.6651 23.9817 72.9067 23.9565 73.0979 23.906L73.143 25.144C72.8218 25.264 72.399 25.3244 71.8752 25.3244C71.2314 25.3244 70.7282 25.1279 70.365 24.7357C70.0033 24.3426 69.8214 23.6835 69.8214 22.7575V19.059H68.7509V17.8355H69.8214V16.492L71.4225 16.0088V17.8355H73.2194V19.0605Z" fill="white"/>
<path d="M81.3268 21.4457C81.3268 22.5736 81.0041 23.4996 80.3603 24.2237C79.6851 24.9692 78.7889 25.3408 77.6718 25.3408C76.5952 25.3408 75.738 24.9837 75.0988 24.2696C74.4595 23.5554 74.1399 22.6539 74.1399 21.5673C74.1399 20.4303 74.4687 19.4989 75.1286 18.7748C75.7869 18.0499 76.6755 17.6875 77.7926 17.6875C78.8692 17.6875 79.7356 18.0446 80.3893 18.7595C81.0148 19.4531 81.3268 20.3485 81.3268 21.4457ZM79.6354 21.4985C79.6354 20.8218 79.4909 20.2414 79.198 19.7574C78.8562 19.1717 78.3676 18.8796 77.7345 18.8796C77.0792 18.8796 76.5814 19.1724 76.2396 19.7574C75.9467 20.2422 75.8022 20.8317 75.8022 21.5291C75.8022 22.2058 75.9467 22.7861 76.2396 23.2694C76.5921 23.8551 77.0845 24.1472 77.72 24.1472C78.3424 24.1472 78.831 23.849 79.1835 23.2541C79.484 22.7609 79.6354 22.1744 79.6354 21.4985Z" fill="white"/>
<path d="M86.6269 19.2718C86.4655 19.242 86.2935 19.2267 86.113 19.2267C85.5395 19.2267 85.096 19.4431 84.7841 19.8767C84.5126 20.259 84.3765 20.7423 84.3765 21.3257V25.1757H82.747L82.7623 20.1489C82.7623 19.3032 82.7417 18.5332 82.7012 17.8389H84.1211L84.1808 19.2428H84.2259C84.3979 18.7603 84.6694 18.3719 85.041 18.0805C85.4042 17.8183 85.7964 17.6875 86.2193 17.6875C86.3699 17.6875 86.506 17.6982 86.6269 17.7173V19.2718Z" fill="white"/>
<path d="M93.9171 21.1579C93.9171 21.45 93.898 21.6962 93.8575 21.8973H88.9668C88.9859 22.6222 89.2222 23.1765 89.6764 23.5589C90.0886 23.9007 90.6215 24.0719 91.276 24.0719C92.0002 24.0719 92.6608 23.9565 93.2549 23.7248L93.5103 24.8565C92.816 25.1593 91.9963 25.3099 91.0505 25.3099C89.9127 25.3099 89.0196 24.975 88.3696 24.3059C87.7212 23.6369 87.3962 22.7384 87.3962 21.6113C87.3962 20.5049 87.6983 19.5835 88.3031 18.8487C88.9362 18.0641 89.7919 17.6719 90.8685 17.6719C91.926 17.6719 92.7266 18.0641 93.2702 18.8487C93.7007 19.4718 93.9171 20.2426 93.9171 21.1579ZM92.3626 20.735C92.3733 20.2518 92.267 19.8343 92.046 19.4818C91.7639 19.0284 91.3303 18.802 90.7469 18.802C90.214 18.802 89.7804 19.023 89.4493 19.4665C89.1779 19.819 89.0165 20.2418 88.9668 20.7343L92.3626 20.735Z" fill="white"/>
<path d="M38.0161 8.7379C38.0161 9.63789 37.7461 10.3154 37.2071 10.7703C36.7078 11.1901 35.9982 11.4004 35.0791 11.4004C34.6233 11.4004 34.2334 11.3805 33.9069 11.3408V6.42333C34.3328 6.35451 34.7916 6.31934 35.287 6.31934C36.1626 6.31934 36.8224 6.50973 37.2675 6.89052C37.766 7.32102 38.0161 7.93656 38.0161 8.7379ZM37.1711 8.76008C37.1711 8.17666 37.0167 7.72934 36.7078 7.41736C36.3988 7.10615 35.9477 6.95017 35.3536 6.95017C35.1012 6.95017 34.8864 6.96699 34.7082 7.00216V10.7405C34.8068 10.7558 34.9873 10.7627 35.2496 10.7627C35.8628 10.7627 36.3361 10.5922 36.6695 10.2511C37.0029 9.9101 37.1711 9.41308 37.1711 8.76008Z" fill="white"/>
<path d="M42.4973 9.52358C42.4973 10.078 42.339 10.5321 42.0224 10.8885C41.6906 11.2547 41.2509 11.4375 40.7019 11.4375C40.1728 11.4375 39.7514 11.2624 39.4372 10.9106C39.1237 10.5597 38.9669 10.1169 38.9669 9.58323C38.9669 9.02504 39.1283 8.56702 39.4525 8.21146C39.7767 7.8559 40.2125 7.67773 40.7615 7.67773C41.2907 7.67773 41.7158 7.85284 42.0377 8.20381C42.3436 8.54484 42.4973 8.98528 42.4973 9.52358ZM41.6661 9.54958C41.6661 9.21696 41.5942 8.93175 41.4512 8.69395C41.283 8.40644 41.0437 8.26269 40.7325 8.26269C40.4106 8.26269 40.1659 8.40644 39.9977 8.69395C39.8539 8.93175 39.7828 9.22155 39.7828 9.56411C39.7828 9.89673 39.8547 10.1819 39.9977 10.4197C40.1712 10.7073 40.4129 10.851 40.7248 10.851C41.0307 10.851 41.2708 10.705 41.4436 10.4121C41.5919 10.1697 41.6661 9.8822 41.6661 9.54958Z" fill="white"/>
<path d="M48.5023 7.75098L47.3745 11.3555H46.6404L46.1732 9.79028C46.0547 9.39955 45.9583 9.01111 45.8834 8.62573H45.8689C45.7993 9.02181 45.7029 9.40949 45.5791 9.79028L45.0828 11.3555H44.3403L43.2798 7.75098H44.1033L44.5109 9.46454C44.6095 9.8698 44.6906 10.2559 44.7555 10.6214H44.7701C44.8297 10.3202 44.9284 9.93633 45.0675 9.47219L45.5791 7.75174H46.2321L46.7222 9.43549C46.8407 9.8461 46.9371 10.2414 47.0112 10.6222H47.0334C47.0877 10.2514 47.1695 9.85604 47.2781 9.43549L47.7155 7.75174H48.5023V7.75098Z" fill="white"/>
<path d="M52.6573 11.356H51.856V9.29147C51.856 8.65529 51.6143 8.3372 51.1295 8.3372C50.8917 8.3372 50.6998 8.42437 50.5507 8.59947C50.4031 8.77457 50.3282 8.98103 50.3282 9.2173V11.3552H49.5269V8.78146C49.5269 8.46489 49.5169 8.12157 49.4978 7.74995H50.202L50.2395 8.31349H50.2617C50.355 8.13839 50.4941 7.99387 50.6769 7.87841C50.894 7.74383 51.1372 7.67578 51.4033 7.67578C51.7397 7.67578 52.0196 7.78436 52.2421 8.00228C52.5189 8.26914 52.6573 8.66752 52.6573 9.19666V11.356Z" fill="white"/>
<path d="M54.8672 11.3561H54.0667V6.09766H54.8672V11.3561Z" fill="white"/>
<path d="M59.5853 9.52358C59.5853 10.078 59.427 10.5321 59.1104 10.8885C58.7786 11.2547 58.3382 11.4375 57.7899 11.4375C57.26 11.4375 56.8387 11.2624 56.5252 10.9106C56.2117 10.5597 56.0549 10.1169 56.0549 9.58323C56.0549 9.02504 56.2163 8.56702 56.5405 8.21146C56.8647 7.8559 57.3005 7.67773 57.8488 7.67773C58.3787 7.67773 58.8031 7.85284 59.1257 8.20381C59.4316 8.54484 59.5853 8.98528 59.5853 9.52358ZM58.7534 9.54958C58.7534 9.21696 58.6815 8.93175 58.5385 8.69395C58.371 8.40644 58.1309 8.26269 57.8205 8.26269C57.4978 8.26269 57.2531 8.40644 57.0857 8.69395C56.9419 8.93175 56.8708 9.22155 56.8708 9.56411C56.8708 9.89673 56.9427 10.1819 57.0857 10.4197C57.2592 10.7073 57.5009 10.851 57.8129 10.851C58.1187 10.851 58.358 10.705 58.5308 10.4121C58.68 10.1697 58.7534 9.8822 58.7534 9.54958Z" fill="white"/>
<path d="M63.4634 11.3557H62.7439L62.6843 10.9405H62.6621C62.4159 11.2716 62.0649 11.4375 61.6092 11.4375C61.2689 11.4375 60.9936 11.3281 60.7864 11.111C60.5983 10.9137 60.5043 10.6683 60.5043 10.3769C60.5043 9.93649 60.6878 9.60081 61.0571 9.36836C61.4257 9.13591 61.9441 9.02198 62.6116 9.02733V8.96004C62.6116 8.4852 62.3624 8.24816 61.863 8.24816C61.5075 8.24816 61.194 8.33762 60.9233 8.51502L60.7604 7.98894C61.0953 7.78173 61.509 7.67773 61.9969 7.67773C62.9389 7.67773 63.4114 8.17475 63.4114 9.16879V10.4962C63.4114 10.8564 63.429 11.1431 63.4634 11.3557ZM62.6315 10.1169V9.56105C61.7476 9.54576 61.3056 9.78815 61.3056 10.2875C61.3056 10.4756 61.3561 10.6163 61.4593 10.7103C61.5625 10.8044 61.6941 10.851 61.8508 10.851C62.0267 10.851 62.1911 10.7952 62.3409 10.6843C62.4916 10.5727 62.5841 10.4312 62.6185 10.2576C62.6269 10.2186 62.6315 10.1712 62.6315 10.1169Z" fill="white"/>
<path d="M68.0167 11.3561H67.3056L67.2681 10.7773H67.2459C67.0188 11.2177 66.6319 11.4379 66.0883 11.4379C65.654 11.4379 65.2923 11.2674 65.0055 10.9264C64.7188 10.5854 64.5758 10.1426 64.5758 9.59896C64.5758 9.01554 64.731 8.54299 65.043 8.18207C65.345 7.84563 65.7151 7.67741 66.1556 7.67741C66.6396 7.67741 66.9783 7.84028 67.171 8.16678H67.1863V6.09766H67.9884V10.385C67.9884 10.736 67.9976 11.0594 68.0167 11.3561ZM67.1863 9.836V9.23499C67.1863 9.131 67.1786 9.04689 67.1641 8.98266C67.119 8.78997 67.0219 8.62786 66.8743 8.49711C66.7252 8.36635 66.5455 8.3006 66.3383 8.3006C66.0393 8.3006 65.8053 8.41911 65.6333 8.65692C65.4628 8.89472 65.3764 9.19829 65.3764 9.56914C65.3764 9.92546 65.4582 10.2145 65.6226 10.437C65.7962 10.674 66.0302 10.7926 66.323 10.7926C66.5861 10.7926 66.7963 10.6939 66.9561 10.4959C67.1106 10.3131 67.1863 10.0929 67.1863 9.836Z" fill="white"/>
<path d="M74.8701 9.52358C74.8701 10.078 74.7118 10.5321 74.3952 10.8885C74.0634 11.2547 73.6245 11.4375 73.0747 11.4375C72.5463 11.4375 72.125 11.2624 71.81 10.9106C71.4965 10.5597 71.3397 10.1169 71.3397 9.58323C71.3397 9.02504 71.5011 8.56702 71.8253 8.21146C72.1495 7.8559 72.5853 7.67773 73.1351 7.67773C73.6635 7.67773 74.0894 7.85284 74.4105 8.20381C74.7164 8.54484 74.8701 8.98528 74.8701 9.52358ZM74.0397 9.54958C74.0397 9.21696 73.9678 8.93175 73.8248 8.69395C73.6558 8.40644 73.4173 8.26269 73.1053 8.26269C72.7841 8.26269 72.5394 8.40644 72.3705 8.69395C72.2267 8.93175 72.1556 9.22155 72.1556 9.56411C72.1556 9.89673 72.2275 10.1819 72.3705 10.4197C72.544 10.7073 72.7857 10.851 73.0976 10.851C73.4035 10.851 73.6444 10.705 73.8172 10.4121C73.9647 10.1697 74.0397 9.8822 74.0397 9.54958Z" fill="white"/>
<path d="M79.1793 11.356H78.3787V9.29147C78.3787 8.65529 78.137 8.3372 77.6515 8.3372C77.4137 8.3372 77.2218 8.42437 77.0734 8.59947C76.9251 8.77457 76.8509 8.98103 76.8509 9.2173V11.3552H76.0488V8.78146C76.0488 8.46489 76.0396 8.12157 76.0205 7.74995H76.724L76.7614 8.31349H76.7836C76.8777 8.13839 77.0168 7.99387 77.1988 7.87841C77.4167 7.74383 77.6591 7.67578 77.926 7.67578C78.2617 7.67578 78.5415 7.78436 78.764 8.00228C79.0416 8.26914 79.1793 8.66752 79.1793 9.19666V11.356Z" fill="white"/>
<path d="M84.5716 8.35145H83.6892V10.1025C83.6892 10.5475 83.846 10.77 84.1564 10.77C84.3002 10.77 84.4195 10.7578 84.5135 10.7326L84.5342 11.3404C84.3759 11.4001 84.1679 11.4299 83.9117 11.4299C83.5952 11.4299 83.349 11.3336 83.1708 11.1409C82.9919 10.9482 82.9032 10.624 82.9032 10.169V8.35145H82.3763V7.75121H82.9032V7.09056L83.6885 6.85352V7.75044H84.5709L84.5716 8.35145Z" fill="white"/>
<path d="M88.814 11.3561H88.0119V9.30687C88.0119 8.66074 87.7703 8.3373 87.2863 8.3373C86.9147 8.3373 86.6608 8.52464 86.5216 8.89931C86.4979 8.97807 86.4842 9.07441 86.4842 9.18758V11.3553H85.6836V6.09766H86.4842V8.27001H86.4995C86.7518 7.87469 87.1135 7.67741 87.5822 7.67741C87.9141 7.67741 88.1886 7.78599 88.4065 8.00391C88.6779 8.27536 88.814 8.67909 88.814 9.21282V11.3561Z" fill="white"/>
<path d="M93.1912 9.38391C93.1912 9.52767 93.1805 9.64848 93.1614 9.74712H90.7581C90.7688 10.1034 90.8835 10.3749 91.106 10.563C91.3094 10.7312 91.5717 10.8153 91.8928 10.8153C92.2484 10.8153 92.5726 10.7587 92.8647 10.6448L92.9901 11.2015C92.6483 11.3498 92.2461 11.424 91.7804 11.424C91.2222 11.424 90.7826 11.2596 90.4645 10.9308C90.1449 10.602 89.9866 10.1608 89.9866 9.60719C89.9866 9.06353 90.1341 8.61086 90.4316 8.24995C90.742 7.86456 91.1618 7.67188 91.6917 7.67188C92.2102 7.67188 92.604 7.86456 92.87 8.24995C93.0849 8.5558 93.1912 8.9343 93.1912 9.38391ZM92.4266 9.17669C92.4327 8.93889 92.3799 8.73397 92.2713 8.56116C92.1322 8.33864 91.9204 8.22701 91.6336 8.22701C91.3721 8.22701 91.1588 8.33559 90.9959 8.55351C90.8629 8.72708 90.7841 8.9343 90.7581 9.17669H92.4266Z" fill="white"/>
</svg>
