<svg width="19" height="18" viewBox="0 0 19 18" fill="none" xmlns="http://www.w3.org/2000/svg">
<path fill-rule="evenodd" clip-rule="evenodd" d="M0.391888 15.5295C-0.130629 16.052 -0.130629 16.8992 0.391888 17.4217C0.914405 17.9442 1.76157 17.9442 2.28409 17.4217L9.10136 10.6044L15.9187 17.4217C16.4412 17.9443 17.2884 17.9443 17.8109 17.4217C18.3334 16.8992 18.3334 16.0521 17.8109 15.5295L10.9936 8.71223L17.4217 2.28409C17.9442 1.76157 17.9442 0.914405 17.4217 0.391888C16.8992 -0.130629 16.052 -0.130629 15.5295 0.391888L9.10136 6.82003L2.67326 0.391926C2.15074 -0.130591 1.30357 -0.130591 0.781057 0.391926C0.25854 0.914443 0.25854 1.76161 0.781058 2.28413L7.20916 8.71223L0.391888 15.5295Z" fill="#CDD4F0"/>
</svg>
