<svg width="104" height="34" viewBox="0 0 104 34" fill="none" xmlns="http://www.w3.org/2000/svg">
<path d="M103.75 29.3419V29.3846C103.727 31.7589 101.795 33.6771 99.4162 33.6771H4.86754C2.47395 33.6773 0.532715 31.736 0.532715 29.3419V4.58483C0.532715 2.19121 2.47392 0.25 4.86754 0.25H99.416C101.809 0.25 103.75 2.19114 103.75 4.58483V29.3419Z" stroke="white" stroke-width="0.5"/>
<mask id="mask0_518_1939" style="mask-type:luminance" maskUnits="userSpaceOnUse" x="6" y="5" width="20" height="24">
<path d="M21.0659 13.8633L16.3893 11.1633C16.3893 11.1633 7.86931 6.24365 7.36843 5.95449C6.86757 5.66533 6.36853 5.84053 6.36853 6.44481V27.6658C6.36853 28.1188 6.7252 28.3141 7.16036 28.0631C7.59533 27.8116 16.3893 22.7343 16.3893 22.7343L21.0657 20.0344C21.0657 20.0344 25.0337 17.7437 25.5611 17.4393C26.0886 17.1345 26.0379 16.7168 25.5928 16.4771C25.1479 16.2372 21.0659 13.8633 21.0659 13.8633Z" fill="white"/>
</mask>
<g mask="url(#mask0_518_1939)">
<path d="M6.36853 5.46094V28.4364L17.9541 16.9488L6.36853 5.46094Z" fill="url(#paint0_linear_518_1939)"/>
</g>
<mask id="mask1_518_1939" style="mask-type:luminance" maskUnits="userSpaceOnUse" x="6" y="5" width="20" height="24">
<path d="M21.0659 13.8633L16.3893 11.1633C16.3893 11.1633 7.86931 6.24365 7.36843 5.95449C6.86757 5.66533 6.36853 5.84053 6.36853 6.44481V27.6658C6.36853 28.1188 6.7252 28.3141 7.16036 28.0631C7.59533 27.8116 16.3893 22.7343 16.3893 22.7343L21.0657 20.0344C21.0657 20.0344 25.0337 17.7437 25.5611 17.4393C26.0886 17.1345 26.0379 16.7168 25.5928 16.4771C25.1479 16.2372 21.0659 13.8633 21.0659 13.8633Z" fill="white"/>
</mask>
<g mask="url(#mask1_518_1939)">
<path d="M21.0657 13.8626L16.389 11.1626L6.36853 5.37695V5.4605L17.9541 16.9483L21.0657 13.8626Z" fill="url(#paint1_linear_518_1939)"/>
</g>
<mask id="mask2_518_1939" style="mask-type:luminance" maskUnits="userSpaceOnUse" x="6" y="5" width="20" height="24">
<path d="M21.0659 13.8633L16.3893 11.1633C16.3893 11.1633 7.86931 6.24365 7.36843 5.95449C6.86757 5.66533 6.36853 5.84053 6.36853 6.44481V27.6658C6.36853 28.1188 6.7252 28.3141 7.16036 28.0631C7.59533 27.8116 16.3893 22.7343 16.3893 22.7343L21.0657 20.0344C21.0657 20.0344 25.0337 17.7437 25.5611 17.4393C26.0886 17.1345 26.0379 16.7168 25.5928 16.4771C25.1479 16.2372 21.0659 13.8633 21.0659 13.8633Z" fill="white"/>
</mask>
<g mask="url(#mask2_518_1939)">
<path d="M6.36853 28.4359V28.5194L16.3891 22.7335L21.0655 20.0335L17.9541 16.9482L6.36853 28.4359Z" fill="url(#paint2_linear_518_1939)"/>
</g>
<mask id="mask3_518_1939" style="mask-type:luminance" maskUnits="userSpaceOnUse" x="6" y="5" width="20" height="24">
<path d="M21.0659 13.8633L16.3893 11.1633C16.3893 11.1633 7.86931 6.24365 7.36843 5.95449C6.86757 5.66533 6.36853 5.84053 6.36853 6.44481V27.6658C6.36853 28.1188 6.7252 28.3141 7.16036 28.0631C7.59533 27.8116 16.3893 22.7343 16.3893 22.7343L21.0657 20.0344C21.0657 20.0344 25.0337 17.7437 25.5611 17.4393C26.0886 17.1345 26.0379 16.7168 25.5928 16.4771C25.1479 16.2372 21.0659 13.8633 21.0659 13.8633Z" fill="white"/>
</mask>
<g mask="url(#mask3_518_1939)">
<path d="M21.0655 13.8633L17.9539 16.949L21.0653 20.0342L26.4099 16.9488L21.0655 13.8633Z" fill="url(#paint3_linear_518_1939)"/>
</g>
<path d="M79.3074 21.4403C78.8722 21.4403 78.4752 21.36 78.1156 21.1996C77.7561 21.039 77.454 20.792 77.21 20.459H77.137C77.1857 20.8492 77.21 21.2191 77.21 21.5684V24.3179H76.1986V14.6367H77.0214L77.1613 15.5512H77.21C77.4704 15.1852 77.7733 14.9214 78.1186 14.7587C78.464 14.5961 78.8604 14.5148 79.3071 14.5148C80.1933 14.5148 80.8772 14.8177 81.3586 15.4232C81.8402 16.0287 82.0812 16.8784 82.0812 17.9713C82.0812 19.0688 81.8362 19.9211 81.3469 20.5292C80.8572 21.1367 80.1775 21.4403 79.3074 21.4403ZM79.1609 15.3744C78.4782 15.3744 77.9844 15.5636 77.6796 15.9413C77.3749 16.3193 77.2183 16.921 77.21 17.7461V17.9714C77.21 18.9104 77.3666 19.582 77.6796 19.9866C77.9927 20.3911 78.4948 20.5929 79.1853 20.5929C79.7628 20.5929 80.215 20.3595 80.5423 19.8921C80.8692 19.4249 81.0328 18.7807 81.0328 17.9592C81.0328 17.1264 80.8692 16.4868 80.5423 16.0419C80.2152 15.5966 79.7545 15.3744 79.1609 15.3744ZM84.4245 21.3182H83.4126V11.8322H84.4245V21.3182ZM90.2428 21.3182L90.0415 20.3672H89.9928C89.6594 20.7861 89.3272 21.0698 88.9959 21.2176C88.6648 21.3663 88.2511 21.4403 87.7555 21.4403C87.0931 21.4403 86.5739 21.2696 86.1978 20.9283C85.8216 20.587 85.6338 20.1015 85.6338 19.4713C85.6338 18.1222 86.713 17.4149 88.871 17.3496L90.0054 17.3129V16.8984C90.0054 16.3741 89.8924 15.9868 89.6667 15.7371C89.4414 15.4869 89.0801 15.362 88.5847 15.362C88.0276 15.362 87.3976 15.5327 86.6948 15.874L86.3837 15.0998C86.7132 14.9209 87.0736 14.7808 87.4662 14.6792C87.8583 14.5776 88.2513 14.5268 88.6457 14.5268C89.4423 14.5268 90.0325 14.7034 90.4168 15.057C90.8007 15.4107 90.9927 15.9776 90.9927 16.7581V21.318H90.2428L90.2428 21.3182ZM87.9567 20.6052C88.5863 20.6052 89.0811 20.4325 89.441 20.0871C89.8004 19.7418 89.9806 19.258 89.9806 18.6359V18.0324L88.9682 18.0748C88.1635 18.1038 87.5838 18.2283 87.2277 18.4503C86.8722 18.6717 86.6944 19.0163 86.6944 19.4837C86.6944 19.8493 86.8049 20.1279 87.0268 20.3185C87.2484 20.5097 87.558 20.6052 87.9567 20.6052ZM91.5801 14.6367H92.665L94.1283 18.4471C94.4493 19.317 94.6486 19.9448 94.7261 20.3311H94.7747C94.8276 20.1234 94.9386 19.7692 95.1069 19.2667C95.2756 18.7646 95.8275 17.2217 96.7619 14.6367H97.8476L94.9759 22.2451C94.6916 22.997 94.3592 23.5305 93.9788 23.846C93.599 24.1607 93.1324 24.3179 92.5802 24.3179C92.2712 24.3179 91.9664 24.2834 91.6653 24.2145V23.4038C91.8888 23.4524 92.139 23.477 92.4154 23.477C93.1105 23.477 93.6059 23.0868 93.903 22.3064L94.2747 21.3555L91.5801 14.6367ZM60.5606 15.2576C60.8819 15.5234 61.5526 16.0818 61.5526 17.1446C61.5526 18.1782 60.9656 18.6683 60.3786 19.1288C60.1969 19.3103 59.9872 19.5066 59.9872 19.8144C59.9872 20.1212 60.1967 20.2891 60.351 20.415L60.8543 20.8056C61.4691 21.3229 62.0276 21.7984 62.0276 22.763C62.0276 24.0766 60.7557 25.4038 58.3524 25.4038C56.3256 25.4038 55.3478 24.4398 55.3478 23.405C55.3478 22.9021 55.5982 22.1897 56.424 21.7C57.2898 21.169 58.4645 21.0998 59.0931 21.0568C58.8969 20.8056 58.6738 20.5399 58.6738 20.1074C58.6738 19.8702 58.744 19.7303 58.8135 19.5617C58.6592 19.5759 58.5057 19.5899 58.3658 19.5899C56.8849 19.5899 56.0464 18.4858 56.0464 17.3963C56.0464 16.7533 56.3402 16.0401 56.9405 15.5236C57.7374 14.8668 58.6876 14.7547 59.443 14.7547H62.3212L61.4267 15.2578H60.5606L60.5606 15.2576ZM59.568 21.463C59.4563 21.4484 59.3861 21.4484 59.247 21.4484C59.1213 21.4484 58.3656 21.477 57.7793 21.6731C57.4719 21.784 56.5772 22.1194 56.5772 23.1122C56.5772 24.104 57.5421 24.8178 59.0376 24.8178C60.3783 24.8178 61.0919 24.1736 61.0919 23.3079C61.0919 22.5937 60.6306 22.2179 59.568 21.463ZM59.9736 18.8072C60.2946 18.4854 60.3222 18.0387 60.3222 17.7868C60.3222 16.7808 59.7215 15.2156 58.5619 15.2156C58.1981 15.2156 57.8071 15.3971 57.5834 15.6769C57.3462 15.9703 57.2756 16.3473 57.2756 16.7111C57.2756 17.6473 57.8207 19.1988 59.0232 19.1988C59.3726 19.1988 59.7491 19.0311 59.9736 18.8072ZM51.7623 21.2393C49.5441 21.2393 48.358 19.509 48.358 17.946C48.358 16.1179 49.8507 14.5559 51.9724 14.5559C54.0225 14.5559 55.3063 16.1599 55.3063 17.8486C55.3064 19.4944 54.0373 21.2393 51.7623 21.2393ZM53.5062 20.1092C53.8416 19.6623 53.9253 19.1045 53.9253 18.5598C53.9253 17.3316 53.3393 14.9879 51.609 14.9879C51.1487 14.9879 50.6884 15.1696 50.3536 15.4632C49.8093 15.9509 49.7112 16.5651 49.7112 17.1657C49.7112 18.546 50.3949 20.8198 52.0837 20.8198C52.6277 20.8198 53.186 20.5552 53.5062 20.1092ZM44.1996 21.2393C41.981 21.2393 40.7948 19.509 40.7948 17.946C40.7948 16.1179 42.288 14.5559 44.4091 14.5559C46.4598 14.5559 47.7434 16.1599 47.7434 17.8486C47.7436 19.4944 46.4742 21.2393 44.1996 21.2393ZM45.9439 20.1092C46.2787 19.6623 46.3627 19.1045 46.3627 18.5598C46.3627 17.3316 45.7762 14.9879 44.0459 14.9879C43.5858 14.9879 43.1251 15.1696 42.7905 15.4632C42.2463 15.9509 42.1487 16.5651 42.1487 17.1657C42.1487 18.546 42.8321 20.8198 44.521 20.8198C45.0653 20.8198 45.6232 20.5552 45.9439 20.1092ZM39.729 21.0205L37.7227 21.4835C36.9087 21.61 36.1795 21.7213 35.4084 21.7213C31.5361 21.7213 30.0637 18.8735 30.0637 16.6429C30.0637 13.9219 32.1536 11.3975 35.7312 11.3975C36.489 11.3975 37.2178 11.5094 37.877 11.6919C38.929 11.9866 39.42 12.3509 39.7288 12.5616L38.564 13.6698L38.0733 13.7815L38.4239 13.2202C37.9472 12.7577 37.0766 11.9022 35.422 11.9022C33.2054 11.9022 31.5357 13.5863 31.5357 16.0409C31.5357 18.6774 33.4439 21.1604 36.5013 21.1604C37.4001 21.1604 37.862 20.9784 38.2832 20.8096V18.5517L36.1653 18.6638L37.2871 18.06H40.2613L39.8969 18.4106C39.7979 18.4951 39.7844 18.5235 39.7564 18.6347C39.7418 18.7612 39.7286 19.1684 39.7286 19.3085V21.0206H39.729V21.0205Z" fill="#F9F9F9"/>
<path d="M64.9939 20.6174C64.5308 20.5752 64.4338 20.4914 64.4338 19.9437V12.0041C64.4366 11.9739 64.4385 11.9429 64.4413 11.9137C64.4979 11.4229 64.638 11.3388 65.0734 11.0859H63.0667L62.0143 11.5911H63.0868V11.5973L63.086 11.5923V20.2528C63.086 20.5328 63.0306 20.5754 62.7076 20.9957H65.1908L65.7099 20.6879C65.4716 20.6589 65.2328 20.6453 64.9939 20.6174ZM70.7021 20.7463C70.5494 20.8301 70.3961 20.928 70.2434 20.9972C69.7829 21.206 69.3094 21.262 68.8907 21.262C68.446 21.262 67.7488 21.2332 67.0377 20.7183C66.0494 20.0212 65.6174 18.8232 65.6174 17.7787C65.6174 15.6197 67.3727 14.561 68.8075 14.561C69.3092 14.561 69.8253 14.6861 70.2432 14.9513C70.9392 15.4102 71.1202 16.0092 71.2172 16.3298L67.9441 17.6538L66.8712 17.7373C67.219 19.5065 68.417 20.5366 69.7409 20.5366C70.4513 20.5366 70.967 20.2864 71.4404 20.05L70.7021 20.7463ZM69.393 16.5942C69.6572 16.4971 69.7965 16.4131 69.7965 16.2183C69.7965 15.6614 69.1699 15.0203 68.417 15.0203C67.8591 15.0203 66.815 15.4524 66.815 16.9566C66.815 17.1934 66.843 17.4441 66.8574 17.6957L69.393 16.5942ZM72.0467 14.6563V15.5755H71.935V14.6563H71.6309V14.5609H72.3507V14.6563H72.0467ZM73.2999 15.5755V14.6477H73.2948L73.0118 15.5755H72.9244L72.6389 14.6477H72.6352V15.5755H72.5338V14.561H72.7076L72.9659 15.381H72.9696L73.2241 14.561H73.4003V15.5755H73.2999Z" fill="#F9F9F9"/>
<path d="M32.8489 8.66603H32.1518C32.1518 8.57011 32.0857 8.29859 31.9535 7.85126H30.947C30.8106 8.29129 30.7423 8.56279 30.7423 8.66603H30.0867C30.0867 8.60943 30.2562 8.14466 30.5952 7.27192C30.9343 6.39916 31.1038 5.91835 31.1038 5.82996H31.9273C31.9273 5.91269 32.0808 6.38639 32.388 7.25124C32.6952 8.11609 32.8489 8.58755 32.8489 8.66603ZM31.8425 7.43516C31.5941 6.68587 31.47 6.28074 31.47 6.21968H31.4352C31.4352 6.27628 31.3066 6.68141 31.0497 7.43516H31.8425ZM35.6578 8.66603H35.1198C35.1198 8.60641 34.9201 8.2921 34.5208 7.7229C34.1027 7.12308 33.8644 6.71306 33.8065 6.49225H33.7716C33.8079 6.81019 33.8261 7.09773 33.8261 7.35487C33.8261 7.71359 33.8363 8.15078 33.8566 8.66624H33.3206C33.3423 8.21608 33.3533 7.7217 33.3533 7.18292C33.3533 6.65287 33.3423 6.20187 33.3206 5.83018H33.9675C33.9675 5.90724 34.1467 6.21445 34.5054 6.75161C34.8873 7.32223 35.1067 7.70933 35.1633 7.91272H35.1959C35.1611 7.58888 35.1436 7.29848 35.1436 7.04138C35.1436 6.648 35.1334 6.24405 35.1132 5.83018H35.6578C35.6374 6.19031 35.6274 6.6413 35.6274 7.18292C35.6272 7.72858 35.6373 8.22295 35.6578 8.66603ZM38.8149 7.14986C38.8149 7.5623 38.6827 7.92245 38.4184 8.23027C38.154 8.53829 37.7837 8.692 37.3074 8.692C37.0925 8.692 36.7962 8.68326 36.4186 8.66582C36.4375 8.22723 36.447 7.73263 36.447 7.18251C36.447 6.65407 36.4375 6.20309 36.4186 5.82976H36.7999C36.8623 5.82976 36.9552 5.82753 37.0787 5.82327C37.202 5.81901 37.2827 5.81678 37.3204 5.81678C37.8446 5.81678 38.2246 5.94757 38.4608 6.20895C38.6969 6.47034 38.8149 6.78383 38.8149 7.14986ZM38.2203 7.24351C38.2203 6.96469 38.139 6.72988 37.9764 6.53866C37.8137 6.34784 37.5653 6.25235 37.2314 6.25235C37.1689 6.25235 37.0833 6.25884 36.9742 6.27202C36.9886 6.56258 36.9959 6.86594 36.9959 7.18249C36.9959 7.52965 37.0032 7.87377 37.0176 8.21505C37.1108 8.23382 37.2056 8.24333 37.3007 8.24343C37.613 8.24343 37.8441 8.14632 37.9944 7.95245C38.1447 7.75859 38.2203 7.52234 38.2203 7.24351ZM41.7262 8.66603H41.0813C40.9128 8.15198 40.7837 7.83463 40.6936 7.71418C40.6036 7.59353 40.4584 7.5333 40.2581 7.5333C40.1737 7.5333 40.0932 7.53411 40.0164 7.53553C40.0164 7.90887 40.0228 8.28561 40.036 8.66603H39.4305C39.4494 8.22741 39.4589 7.73284 39.4589 7.1827C39.4589 6.65427 39.4494 6.20328 39.4305 5.82996H39.8073C39.8509 5.82996 39.9419 5.82773 40.0806 5.82347C40.2193 5.81921 40.3475 5.81697 40.4651 5.81697C41.1316 5.81697 41.465 6.04489 41.465 6.50096C41.465 6.86251 41.2748 7.11436 40.8944 7.25691V7.28956C41.041 7.33012 41.1696 7.44469 41.2799 7.63246C41.39 7.82044 41.5388 8.16496 41.7262 8.66603ZM40.9094 6.66194C40.9094 6.37299 40.7234 6.22842 40.3517 6.22842C40.2153 6.22842 40.0946 6.23856 39.9902 6.25884C40.0062 6.48392 40.0141 6.77734 40.0141 7.1389C40.094 7.14194 40.1615 7.14316 40.2167 7.14316C40.6784 7.14336 40.9094 6.98296 40.9094 6.66194ZM44.8485 7.19566C44.8485 7.64138 44.7121 8.01103 44.4389 8.30445C44.1658 8.59769 43.8282 8.74448 43.4261 8.74448C43.0426 8.74448 42.7216 8.60984 42.4633 8.34035C42.2047 8.07105 42.0756 7.72858 42.0756 7.31347C42.0756 6.86777 42.212 6.4981 42.4852 6.20468C42.7581 5.91146 43.0957 5.76465 43.498 5.76465C43.8815 5.76465 44.2023 5.89889 44.4609 6.16757C44.7194 6.43627 44.8485 6.77876 44.8485 7.19566ZM44.2475 7.25874C44.2475 6.95518 44.1698 6.70901 44.0145 6.52022C43.859 6.33143 43.6674 6.23714 43.4395 6.23714C43.2273 6.23714 43.0473 6.33224 42.8993 6.52245C42.7512 6.71266 42.6768 6.95297 42.6768 7.24353C42.6768 7.54547 42.7549 7.79124 42.911 7.98085C43.0671 8.17045 43.2584 8.26515 43.4851 8.26515C43.697 8.26515 43.8773 8.16964 44.0253 7.97861C44.1733 7.78779 44.2475 7.54768 44.2475 7.25874ZM46.0802 8.66603H45.4638C45.4827 8.21586 45.4922 7.72148 45.4922 7.1827C45.4922 6.65263 45.4827 6.20165 45.4638 5.82996H46.0802C46.0614 6.19598 46.0519 6.64675 46.0519 7.1827C46.0519 7.73 46.0614 8.22458 46.0802 8.66603ZM49.2375 7.14986C49.2375 7.5623 49.1053 7.92245 48.8411 8.23027C48.5767 8.53829 48.2064 8.692 47.7301 8.692C47.5151 8.692 47.2188 8.68326 46.8413 8.66582C46.8601 8.22723 46.8697 7.73263 46.8697 7.18251C46.8697 6.65407 46.8601 6.20309 46.8413 5.82976H47.2225C47.285 5.82976 47.3778 5.82753 47.5013 5.82327C47.6246 5.81901 47.7053 5.81678 47.743 5.81678C48.2672 5.81678 48.6472 5.94757 48.8835 6.20895C49.1195 6.47034 49.2375 6.78383 49.2375 7.14986ZM48.643 7.24351C48.643 6.96469 48.5616 6.72988 48.399 6.53866C48.2364 6.34784 47.988 6.25235 47.654 6.25235C47.5915 6.25235 47.506 6.25884 47.3969 6.27202C47.4113 6.56258 47.4186 6.86594 47.4186 7.18249C47.4186 7.52965 47.4259 7.87377 47.4402 8.21505C47.5334 8.23382 47.6283 8.24333 47.7233 8.24343C48.0356 8.24343 48.2668 8.14632 48.417 7.95245C48.5673 7.75859 48.643 7.52234 48.643 7.24351ZM53.4261 8.66603H52.729C52.729 8.57011 52.6629 8.29859 52.5304 7.85126H51.524C51.3876 8.29129 51.3192 8.56279 51.3192 8.66603H50.6639C50.6639 8.60943 50.8334 8.14466 51.1724 7.27192C51.5115 6.39916 51.681 5.91835 51.681 5.82996H52.5045C52.5045 5.91269 52.6582 6.38639 52.9652 7.25124C53.2722 8.11609 53.4261 8.58755 53.4261 8.66603ZM52.4197 7.43516C52.1713 6.68587 52.047 6.28074 52.047 6.21968H52.0121C52.0121 6.27628 51.8838 6.68141 51.6269 7.43516H52.4197ZM55.9669 6.57254C55.9669 6.91969 55.8379 7.17601 55.5802 7.34147C55.3225 7.50694 55.0063 7.58986 54.6316 7.58986C54.5633 7.58986 54.5148 7.58844 54.4856 7.5856C54.4856 7.85875 54.4935 8.21869 54.5095 8.66603H53.8973C53.9162 8.24648 53.9257 7.75188 53.9257 7.1827C53.9257 6.65993 53.9162 6.20895 53.8973 5.82996H54.2763C54.3301 5.82996 54.4331 5.82773 54.5856 5.82347C54.7381 5.81921 54.8701 5.81697 54.982 5.81697C55.2578 5.81697 55.491 5.87942 55.6812 6.00433C55.8714 6.12926 55.9669 6.31845 55.9669 6.57254ZM55.405 6.69238C55.405 6.3817 55.1988 6.22619 54.7864 6.22619C54.6831 6.22619 54.5742 6.23712 54.4597 6.25884C54.4757 6.5334 54.4836 6.84406 54.4836 7.19121C54.5199 7.19426 54.5621 7.19547 54.6099 7.19547C55.14 7.19566 55.405 7.02798 55.405 6.69238ZM58.5795 6.57254C58.5795 6.91969 58.4506 7.17601 58.193 7.34147C57.9353 7.50694 57.619 7.58986 57.2442 7.58986C57.1759 7.58986 57.1274 7.58844 57.0982 7.5856C57.0982 7.85875 57.1062 8.21869 57.1222 8.66603H56.51C56.5288 8.24648 56.5384 7.75188 56.5384 7.1827C56.5384 6.65993 56.5288 6.20895 56.51 5.82996H56.889C56.9427 5.82996 57.0457 5.82773 57.1982 5.82347C57.3507 5.81921 57.4827 5.81697 57.5946 5.81697C57.8704 5.81697 58.1036 5.87942 58.2938 6.00433C58.484 6.12926 58.5795 6.31845 58.5795 6.57254ZM58.0176 6.69238C58.0176 6.3817 57.8114 6.22619 57.399 6.22619C57.2958 6.22619 57.1868 6.23712 57.0723 6.25884C57.0883 6.5334 57.0962 6.84406 57.0962 7.19121C57.1325 7.19426 57.1747 7.19547 57.2226 7.19547C57.7526 7.19566 58.0176 7.02798 58.0176 6.69238ZM62.8511 7.19566C62.8511 7.64138 62.7146 8.01103 62.4415 8.30445C62.1683 8.59787 61.8307 8.74448 61.4286 8.74448C61.0451 8.74448 60.7241 8.60984 60.4658 8.34035C60.2074 8.07105 60.0781 7.72858 60.0781 7.31347C60.0781 6.86777 60.2146 6.4981 60.4877 6.20468C60.7608 5.91126 61.0985 5.76465 61.5006 5.76465C61.884 5.76465 62.205 5.89889 62.4634 6.16757C62.7217 6.43627 62.8511 6.77876 62.8511 7.19566ZM62.2498 7.25874C62.2498 6.95518 62.1721 6.70901 62.0168 6.52022C61.8615 6.33143 61.6697 6.23714 61.4418 6.23714C61.2296 6.23714 61.0496 6.33224 60.9016 6.52245C60.7535 6.71266 60.6793 6.95297 60.6793 7.24353C60.6793 7.54547 60.7574 7.79124 60.9135 7.98085C61.0696 8.17045 61.2609 8.26515 61.4874 8.26515C61.6995 8.26515 61.8796 8.16964 62.0276 7.97862C62.1758 7.78779 62.2498 7.54768 62.2498 7.25874ZM65.8035 8.66603H65.2656C65.2656 8.60641 65.066 8.2921 64.6665 7.7229C64.2484 7.12308 64.0101 6.71306 63.9522 6.49225H63.9173C63.9536 6.81019 63.9718 7.09773 63.9718 7.35487C63.9718 7.71359 63.982 8.15078 64.0023 8.66624H63.4663C63.488 8.21608 63.499 7.7217 63.499 7.18292C63.499 6.65287 63.488 6.20187 63.4663 5.83018H64.1132C64.1132 5.90724 64.2926 6.21445 64.6512 6.75161C65.0332 7.32223 65.2524 7.70933 65.309 7.91272H65.3416C65.3068 7.58888 65.2893 7.29848 65.2893 7.04138C65.2893 6.648 65.2792 6.24405 65.2589 5.83018H65.8035C65.7831 6.19031 65.7731 6.6413 65.7731 7.18292C65.7731 7.72858 65.7832 8.22295 65.8035 8.66603Z" fill="#F9F9FA"/>
<defs>
<linearGradient id="paint0_linear_518_1939" x1="12.1613" y1="5.46097" x2="12.1613" y2="28.4364" gradientUnits="userSpaceOnUse">
<stop stop-color="#257CB0"/>
<stop offset="0.286" stop-color="#4A93B5"/>
<stop offset="0.767" stop-color="#78BCBB"/>
<stop offset="1" stop-color="#89CFBD"/>
</linearGradient>
<linearGradient id="paint1_linear_518_1939" x1="6.36872" y1="11.1625" x2="21.0659" y2="11.1625" gradientUnits="userSpaceOnUse">
<stop stop-color="#52C1AD"/>
<stop offset="1" stop-color="#DEE89A"/>
</linearGradient>
<linearGradient id="paint2_linear_518_1939" x1="13.717" y1="16.9483" x2="13.717" y2="28.5194" gradientUnits="userSpaceOnUse">
<stop stop-color="#EC413D"/>
<stop offset="0.167" stop-color="#DA4452"/>
<stop offset="0.575" stop-color="#B0487A"/>
<stop offset="0.862" stop-color="#954A92"/>
<stop offset="1" stop-color="#8A4A9D"/>
</linearGradient>
<linearGradient id="paint3_linear_518_1939" x1="22.182" y1="13.8633" x2="22.182" y2="20.0341" gradientUnits="userSpaceOnUse">
<stop stop-color="#F58879"/>
<stop offset="0.119" stop-color="#F69079"/>
<stop offset="0.713" stop-color="#FCB877"/>
<stop offset="1" stop-color="#FEC874"/>
</linearGradient>
</defs>
</svg>
