<svg width="21" height="21" viewBox="0 0 21 21" fill="none" xmlns="http://www.w3.org/2000/svg">
<rect x="1" y="1.00586" width="18.6772" height="18.5338" rx="9.26689" transform="rotate(-0.325931 1 1.00586)" fill="#CDD4F0"/>
<rect x="1" y="1.00586" width="18.6772" height="18.5338" rx="9.26689" transform="rotate(-0.325931 1 1.00586)" stroke="#CDD4F0" stroke-width="1.55643"/>
<g clip-path="url(#clip0_552_7819)">
<path d="M8.444 9.91298L8.43515 8.35657C8.43221 7.84059 8.63437 7.34458 8.99715 6.97765C9.35993 6.61072 9.85361 6.40294 10.3696 6.4C10.8856 6.39707 11.3816 6.59922 11.7485 6.962C12.1154 7.32478 12.3232 7.81846 12.3262 8.33444L12.335 9.89085M7.6658 9.91741L13.1132 9.88642C13.543 9.88397 13.8934 10.2304 13.8958 10.6602L13.9113 13.3839C13.9138 13.8137 13.5674 14.1641 13.1376 14.1665L7.69015 14.1975C7.26036 14.2 6.90996 13.8535 6.90752 13.4237L6.89202 10.7C6.88958 10.2702 7.23601 9.91985 7.6658 9.91741Z" stroke="#19213D" stroke-width="0.778215" stroke-linecap="round" stroke-linejoin="round"/>
</g>
<defs>
<clipPath id="clip0_552_7819">
<rect width="9.33858" height="9.33858" fill="white" transform="translate(5.6958 5.64844) rotate(-0.325931)"/>
</clipPath>
</defs>
</svg>
