<svg width="12" height="13" viewBox="0 0 12 13" fill="none" xmlns="http://www.w3.org/2000/svg">
<path d="M9.54024 8.64982C9.08708 8.64982 8.6689 8.80882 8.34135 9.07436L5.04679 6.69089C5.10195 6.38809 5.10195 6.07782 5.04679 5.77503L8.34135 3.39156C8.6689 3.65709 9.08708 3.8161 9.54024 3.8161C10.5928 3.8161 11.4483 2.96065 11.4483 1.90805C11.4483 0.855442 10.5928 0 9.54024 0C8.48763 0 7.63219 0.855442 7.63219 1.90805C7.63219 2.09249 7.65763 2.26899 7.70692 2.43753L4.57772 4.70334C4.11343 4.08799 3.37565 3.68889 2.54406 3.68889C1.13847 3.68889 0 4.82736 0 6.23296C0 7.63855 1.13847 8.77702 2.54406 8.77702C3.37565 8.77702 4.11343 8.37792 4.57772 7.76258L7.70692 10.0284C7.65763 10.1969 7.63219 10.375 7.63219 10.5579C7.63219 11.6105 8.48763 12.4659 9.54024 12.4659C10.5928 12.4659 11.4483 11.6105 11.4483 10.5579C11.4483 9.50526 10.5928 8.64982 9.54024 8.64982ZM9.54024 1.08123C9.99658 1.08123 10.3671 1.45171 10.3671 1.90805C10.3671 2.36439 9.99658 2.73487 9.54024 2.73487C9.0839 2.73487 8.71342 2.36439 8.71342 1.90805C8.71342 1.45171 9.0839 1.08123 9.54024 1.08123ZM2.54406 7.63219C1.77289 7.63219 1.14483 7.00413 1.14483 6.23296C1.14483 5.46179 1.77289 4.83372 2.54406 4.83372C3.31523 4.83372 3.9433 5.46179 3.9433 6.23296C3.9433 7.00413 3.31523 7.63219 2.54406 7.63219ZM9.54024 11.3847C9.0839 11.3847 8.71342 11.0142 8.71342 10.5579C8.71342 10.1015 9.0839 9.73104 9.54024 9.73104C9.99658 9.73104 10.3671 10.1015 10.3671 10.5579C10.3671 11.0142 9.99658 11.3847 9.54024 11.3847Z" fill="#E6E0FF"/>
</svg>
