<svg width="12" height="11" viewBox="0 0 12 11" fill="none" xmlns="http://www.w3.org/2000/svg">
<path d="M10.7897 4.99899L8.55097 7.14853L9.07322 10.1579C9.08626 10.225 9.07943 10.2945 9.05355 10.3579C9.02766 10.4214 8.9838 10.4763 8.92714 10.5161C8.87226 10.5554 8.8073 10.5789 8.73956 10.584C8.67182 10.589 8.60398 10.5755 8.54367 10.5448L5.77903 9.11177L3.01439 10.5448C2.95634 10.572 2.89199 10.5837 2.82786 10.5786C2.76372 10.5736 2.70209 10.552 2.64918 10.5161C2.59252 10.4763 2.54866 10.4214 2.52277 10.3579C2.49689 10.2945 2.49006 10.225 2.5031 10.1579L3.02169 7.13778L0.782958 4.98825C0.714937 4.92112 0.676758 4.83032 0.676758 4.73568C0.676758 4.64103 0.714937 4.55023 0.782958 4.48311C0.838884 4.42705 0.912015 4.39056 0.991128 4.37921L4.0808 3.93856L5.45764 1.20149C5.47868 1.15908 5.50804 1.12117 5.54404 1.08993C5.58005 1.05869 5.62199 1.03472 5.66745 1.01941C5.71292 1.0041 5.76102 0.997744 5.80899 1.00071C5.85697 1.00367 5.90388 1.0159 5.94702 1.03669C6.02018 1.07172 6.07931 1.12972 6.11502 1.20149L7.49551 3.9493L10.5852 4.38996C10.633 4.39612 10.6791 4.41151 10.7208 4.43524C10.7625 4.45896 10.799 4.49056 10.8282 4.52819C10.8574 4.56583 10.8787 4.60876 10.8909 4.65452C10.9031 4.70028 10.9059 4.74795 10.8993 4.79479C10.885 4.87228 10.8467 4.94358 10.7897 4.99899Z" stroke="#75D9E9" stroke-width="0.5"/>
</svg>
