<svg width="67" height="20" viewBox="0 0 67 20" fill="none" xmlns="http://www.w3.org/2000/svg">
<path d="M0 18.8971V1.10362H4.83066V15.0048H12.0245V18.8971H0Z" fill="white"/>
<path d="M29.7878 10.0004C29.7878 11.9813 29.4026 13.6523 28.6323 15.0135C27.8619 16.3689 26.8222 17.397 25.5132 18.0978C24.2042 18.7929 22.7445 19.1404 21.1343 19.1404C19.5125 19.1404 18.0471 18.79 16.7381 18.0891C15.4348 17.3825 14.398 16.3515 13.6277 14.9961C12.8631 13.635 12.4808 11.9697 12.4808 10.0004C12.4808 8.01946 12.8631 6.35132 13.6277 4.99595C14.398 3.6348 15.4348 2.60669 16.7381 1.91163C18.0471 1.21078 19.5125 0.860352 21.1343 0.860352C22.7445 0.860352 24.2042 1.21078 25.5132 1.91163C26.8222 2.60669 27.8619 3.6348 28.6323 4.99595C29.4026 6.35132 29.7878 8.01946 29.7878 10.0004ZM24.8181 10.0004C24.8181 8.93462 24.6762 8.03684 24.3924 7.30703C24.1144 6.57142 23.7002 6.01537 23.15 5.63888C22.6055 5.2566 21.9336 5.06546 21.1343 5.06546C20.335 5.06546 19.6602 5.2566 19.11 5.63888C18.5655 6.01537 18.1514 6.57142 17.8675 7.30703C17.5895 8.03684 17.4505 8.93462 17.4505 10.0004C17.4505 11.0661 17.5895 11.9668 17.8675 12.7024C18.1514 13.4322 18.5655 13.9883 19.11 14.3706C19.6602 14.7471 20.335 14.9353 21.1343 14.9353C21.9336 14.9353 22.6055 14.7471 23.15 14.3706C23.7002 13.9883 24.1144 13.4322 24.3924 12.7024C24.6762 11.9668 24.8181 11.0661 24.8181 10.0004Z" fill="white"/>
<path d="M42.8442 6.97687C42.7689 6.66989 42.6502 6.40055 42.488 6.16887C42.3258 5.93139 42.1231 5.73156 41.8798 5.56938C41.6424 5.40141 41.3643 5.27687 41.0458 5.19578C40.733 5.1089 40.3884 5.06546 40.0119 5.06546C39.201 5.06546 38.5088 5.2595 37.9354 5.64757C37.3678 6.03565 36.9333 6.59459 36.6321 7.3244C36.3367 8.05422 36.189 8.93462 36.189 9.96563C36.189 11.0082 36.331 11.9002 36.6148 12.6416C36.8986 13.383 37.3214 13.9506 37.8833 14.3445C38.4451 14.7384 39.143 14.9353 39.9771 14.9353C40.7127 14.9353 41.3238 14.8281 41.8103 14.6138C42.3027 14.3995 42.6705 14.0954 42.9137 13.7016C43.157 13.3077 43.2786 12.8443 43.2786 12.3115L44.1127 12.3983H40.0466V8.95779H47.9355V11.4253C47.9355 13.0471 47.5909 14.4343 46.9016 15.5869C46.2182 16.7338 45.2741 17.6142 44.0693 18.2281C42.8703 18.8363 41.4947 19.1404 39.9424 19.1404C38.2105 19.1404 36.6901 18.7726 35.381 18.037C34.072 17.3014 33.0497 16.253 32.3141 14.8919C31.5843 13.5307 31.2194 11.9118 31.2194 10.0351C31.2194 8.56393 31.4424 7.26069 31.8884 6.12543C32.3402 4.99016 32.9657 4.03156 33.765 3.24962C34.5643 2.46188 35.4882 1.86819 36.5366 1.46853C37.585 1.06308 38.7086 0.860352 39.9076 0.860352C40.9618 0.860352 41.9407 1.01095 42.8442 1.31214C43.7536 1.60754 44.5558 2.03037 45.2509 2.58062C45.9517 3.12509 46.5165 3.77091 46.9451 4.5181C47.3737 5.26529 47.6344 6.08488 47.727 6.97687H42.8442Z" fill="white"/>
<path d="M66.6915 10.0004C66.6915 11.9813 66.3063 13.6523 65.5359 15.0135C64.7656 16.3689 63.7259 17.397 62.4168 18.0978C61.1078 18.7929 59.6482 19.1404 58.038 19.1404C56.4162 19.1404 54.9508 18.79 53.6417 18.0891C52.3385 17.3825 51.3017 16.3515 50.5313 14.9961C49.7668 13.635 49.3845 11.9697 49.3845 10.0004C49.3845 8.01946 49.7668 6.35132 50.5313 4.99595C51.3017 3.6348 52.3385 2.60669 53.6417 1.91163C54.9508 1.21078 56.4162 0.860352 58.038 0.860352C59.6482 0.860352 61.1078 1.21078 62.4168 1.91163C63.7259 2.60669 64.7656 3.6348 65.5359 4.99595C66.3063 6.35132 66.6915 8.01946 66.6915 10.0004ZM61.7218 10.0004C61.7218 8.93462 61.5799 8.03684 61.2961 7.30703C61.018 6.57142 60.6039 6.01537 60.0536 5.63888C59.5092 5.2566 58.8373 5.06546 58.038 5.06546C57.2387 5.06546 56.5639 5.2566 56.0136 5.63888C55.4692 6.01537 55.055 6.57142 54.7712 7.30703C54.4932 8.03684 54.3542 8.93462 54.3542 10.0004C54.3542 11.0661 54.4932 11.9668 54.7712 12.7024C55.055 13.4322 55.4692 13.9883 56.0136 14.3706C56.5639 14.7471 57.2387 14.9353 58.038 14.9353C58.8373 14.9353 59.5092 14.7471 60.0536 14.3706C60.6039 13.9883 61.018 13.4322 61.2961 12.7024C61.5799 11.9668 61.7218 11.0661 61.7218 10.0004Z" fill="white"/>
</svg>
